<mxfile host="Electron" modified="2022-02-22T16:05:27.369Z" agent="5.0 (Windows NT 10.0; Win64; x64) AppleWebKit/537.36 (KHTML, like Gecko) draw.io/16.5.1 Chrome/96.0.4664.110 Electron/16.0.7 Safari/537.36" etag="W3NhlXzFjGs4W63ApdEv" compressed="false" version="16.5.1" type="device">
  <diagram id="VvMH3T0tFOWls1TtlWHI" name="Page-1">
    <mxGraphModel dx="1102" dy="937" grid="1" gridSize="10" guides="1" tooltips="1" connect="1" arrows="1" fold="1" page="1" pageScale="1" pageWidth="827" pageHeight="1169" math="0" shadow="0">
      <root>
        <mxCell id="0" />
        <mxCell id="1" parent="0" />
        <mxCell id="SCEBDnn7HksAOEmNl1ou-2" value="&lt;i style=&quot;font-size: 20px;&quot;&gt;&lt;font face=&quot;Times New Roman&quot; style=&quot;font-size: 20px;&quot;&gt;s&lt;sub style=&quot;font-size: 20px;&quot;&gt;0&lt;/sub&gt;&lt;/font&gt;&lt;/i&gt;" style="ellipse;whiteSpace=wrap;html=1;aspect=fixed;strokeWidth=3;fontSize=20;fillColor=#dae8fc;strokeColor=#6c8ebf;" parent="1" vertex="1">
          <mxGeometry x="424" y="220" width="40" height="40" as="geometry" />
        </mxCell>
        <mxCell id="SCEBDnn7HksAOEmNl1ou-3" value="&lt;i style=&quot;font-size: 20px&quot;&gt;&lt;font face=&quot;Times New Roman&quot; style=&quot;font-size: 20px&quot;&gt;s&lt;sub&gt;1&lt;/sub&gt;&lt;sup&gt;0&lt;/sup&gt;&lt;/font&gt;&lt;/i&gt;" style="ellipse;whiteSpace=wrap;html=1;aspect=fixed;strokeWidth=3;fontSize=20;fillColor=#dae8fc;strokeColor=#6c8ebf;" parent="1" vertex="1">
          <mxGeometry x="304" y="300" width="40" height="40" as="geometry" />
        </mxCell>
        <mxCell id="SCEBDnn7HksAOEmNl1ou-4" value="&lt;i&gt;&lt;font face=&quot;Times New Roman&quot;&gt;s&lt;sub&gt;1&lt;/sub&gt;&lt;sup&gt;2&lt;/sup&gt;&lt;/font&gt;&lt;/i&gt;" style="ellipse;whiteSpace=wrap;html=1;aspect=fixed;strokeWidth=3;fontSize=20;" parent="1" vertex="1">
          <mxGeometry x="544" y="300" width="40" height="40" as="geometry" />
        </mxCell>
        <mxCell id="SCEBDnn7HksAOEmNl1ou-5" value="&lt;i style=&quot;color: rgb(0 , 0 , 0) ; font-family: &amp;#34;helvetica&amp;#34; ; font-size: 20px ; font-weight: 400 ; letter-spacing: normal ; text-align: center ; text-indent: 0px ; text-transform: none ; word-spacing: 0px ; background-color: rgb(248 , 249 , 250)&quot;&gt;&lt;font face=&quot;Times New Roman&quot; style=&quot;font-size: 20px&quot;&gt;s&lt;sub&gt;1&lt;/sub&gt;&lt;sup&gt;1&lt;/sup&gt;&lt;/font&gt;&lt;/i&gt;" style="ellipse;whiteSpace=wrap;html=1;aspect=fixed;strokeWidth=3;fontSize=20;" parent="1" vertex="1">
          <mxGeometry x="424" y="300" width="40" height="40" as="geometry" />
        </mxCell>
        <mxCell id="SCEBDnn7HksAOEmNl1ou-7" value="&lt;font face=&quot;Times New Roman&quot; style=&quot;font-size: 20px&quot;&gt;U&lt;sub&gt;1&lt;/sub&gt;&lt;/font&gt;" style="text;html=1;align=center;verticalAlign=middle;resizable=0;points=[];autosize=1;strokeColor=none;strokeWidth=3;fontSize=20;" parent="1" vertex="1">
          <mxGeometry x="443" y="270" width="40" height="40" as="geometry" />
        </mxCell>
        <mxCell id="SCEBDnn7HksAOEmNl1ou-8" value="" style="endArrow=classic;html=1;exitX=0.5;exitY=1;exitDx=0;exitDy=0;strokeWidth=3;fontSize=20;" parent="1" source="SCEBDnn7HksAOEmNl1ou-2" target="SCEBDnn7HksAOEmNl1ou-5" edge="1">
          <mxGeometry width="50" height="50" relative="1" as="geometry">
            <mxPoint x="674" y="400" as="sourcePoint" />
            <mxPoint x="724" y="350" as="targetPoint" />
          </mxGeometry>
        </mxCell>
        <mxCell id="SCEBDnn7HksAOEmNl1ou-9" value="" style="endArrow=classic;html=1;exitX=0;exitY=1;exitDx=0;exitDy=0;entryX=1;entryY=0;entryDx=0;entryDy=0;fillColor=#FF0000;strokeWidth=3;fontSize=20;" parent="1" source="SCEBDnn7HksAOEmNl1ou-2" target="SCEBDnn7HksAOEmNl1ou-3" edge="1">
          <mxGeometry width="50" height="50" relative="1" as="geometry">
            <mxPoint x="674" y="400" as="sourcePoint" />
            <mxPoint x="724" y="350" as="targetPoint" />
          </mxGeometry>
        </mxCell>
        <mxCell id="SCEBDnn7HksAOEmNl1ou-10" value="" style="endArrow=classic;html=1;exitX=1;exitY=1;exitDx=0;exitDy=0;entryX=0;entryY=0;entryDx=0;entryDy=0;strokeWidth=3;fontSize=20;" parent="1" source="SCEBDnn7HksAOEmNl1ou-2" target="SCEBDnn7HksAOEmNl1ou-4" edge="1">
          <mxGeometry width="50" height="50" relative="1" as="geometry">
            <mxPoint x="674" y="400" as="sourcePoint" />
            <mxPoint x="724" y="350" as="targetPoint" />
          </mxGeometry>
        </mxCell>
        <mxCell id="SCEBDnn7HksAOEmNl1ou-11" value="&lt;font face=&quot;Times New Roman&quot; style=&quot;font-size: 20px&quot;&gt;U&lt;sub&gt;0&lt;/sub&gt;&lt;/font&gt;" style="text;html=1;align=center;verticalAlign=middle;resizable=0;points=[];autosize=1;strokeColor=none;strokeWidth=3;fontSize=20;" parent="1" vertex="1">
          <mxGeometry x="354" y="250" width="40" height="40" as="geometry" />
        </mxCell>
        <mxCell id="SCEBDnn7HksAOEmNl1ou-12" value="&lt;font face=&quot;Times New Roman&quot; style=&quot;font-size: 20px&quot;&gt;U&lt;sub&gt;2&lt;/sub&gt;&lt;/font&gt;" style="text;html=1;align=center;verticalAlign=middle;resizable=0;points=[];autosize=1;strokeColor=none;strokeWidth=3;fontSize=20;" parent="1" vertex="1">
          <mxGeometry x="504" y="250" width="40" height="40" as="geometry" />
        </mxCell>
        <mxCell id="SCEBDnn7HksAOEmNl1ou-13" value="&lt;i style=&quot;font-size: 20px&quot;&gt;&lt;font face=&quot;Times New Roman&quot; style=&quot;font-size: 20px&quot;&gt;s&lt;sub&gt;2&lt;/sub&gt;&lt;sup&gt;0&lt;/sup&gt;&lt;/font&gt;&lt;/i&gt;" style="ellipse;whiteSpace=wrap;html=1;aspect=fixed;strokeWidth=3;fontSize=20;" parent="1" vertex="1">
          <mxGeometry x="224" y="380" width="40" height="40" as="geometry" />
        </mxCell>
        <mxCell id="SCEBDnn7HksAOEmNl1ou-14" value="&lt;i style=&quot;font-size: 20px&quot;&gt;&lt;font face=&quot;Times New Roman&quot; style=&quot;font-size: 20px&quot;&gt;s&lt;sub&gt;2&lt;/sub&gt;&lt;sup&gt;1&lt;/sup&gt;&lt;/font&gt;&lt;/i&gt;" style="ellipse;whiteSpace=wrap;html=1;aspect=fixed;strokeWidth=3;fontSize=20;fillColor=#dae8fc;strokeColor=#6c8ebf;" parent="1" vertex="1">
          <mxGeometry x="384" y="380" width="40" height="40" as="geometry" />
        </mxCell>
        <mxCell id="SCEBDnn7HksAOEmNl1ou-15" value="" style="endArrow=classic;html=1;exitX=0;exitY=1;exitDx=0;exitDy=0;entryX=1;entryY=0;entryDx=0;entryDy=0;strokeWidth=3;fontSize=20;" parent="1" source="SCEBDnn7HksAOEmNl1ou-3" target="SCEBDnn7HksAOEmNl1ou-13" edge="1">
          <mxGeometry width="50" height="50" relative="1" as="geometry">
            <mxPoint x="674" y="400" as="sourcePoint" />
            <mxPoint x="724" y="350" as="targetPoint" />
          </mxGeometry>
        </mxCell>
        <mxCell id="SCEBDnn7HksAOEmNl1ou-16" value="" style="endArrow=classic;html=1;exitX=1;exitY=1;exitDx=0;exitDy=0;entryX=0;entryY=0;entryDx=0;entryDy=0;strokeWidth=3;fontSize=20;" parent="1" source="SCEBDnn7HksAOEmNl1ou-3" target="SCEBDnn7HksAOEmNl1ou-14" edge="1">
          <mxGeometry width="50" height="50" relative="1" as="geometry">
            <mxPoint x="674" y="400" as="sourcePoint" />
            <mxPoint x="724" y="350" as="targetPoint" />
          </mxGeometry>
        </mxCell>
        <mxCell id="SCEBDnn7HksAOEmNl1ou-17" value="&lt;font face=&quot;Times New Roman&quot; style=&quot;font-size: 20px&quot;&gt;U&lt;sub&gt;0&lt;/sub&gt;&lt;/font&gt;" style="text;html=1;align=center;verticalAlign=middle;resizable=0;points=[];autosize=1;strokeColor=none;strokeWidth=3;fontSize=20;" parent="1" vertex="1">
          <mxGeometry x="250" y="330" width="40" height="40" as="geometry" />
        </mxCell>
        <mxCell id="SCEBDnn7HksAOEmNl1ou-18" value="&lt;font face=&quot;Times New Roman&quot; style=&quot;font-size: 20px&quot;&gt;U&lt;sub&gt;1&lt;/sub&gt;&lt;/font&gt;" style="text;html=1;align=center;verticalAlign=middle;resizable=0;points=[];autosize=1;strokeColor=none;strokeWidth=3;fontSize=20;" parent="1" vertex="1">
          <mxGeometry x="354" y="330" width="40" height="40" as="geometry" />
        </mxCell>
        <mxCell id="SCEBDnn7HksAOEmNl1ou-19" value="&lt;i style=&quot;font-size: 20px&quot;&gt;&lt;font face=&quot;Times New Roman&quot; style=&quot;font-size: 20px&quot;&gt;s&lt;sub&gt;3&lt;/sub&gt;&lt;sup&gt;0&lt;/sup&gt;&lt;/font&gt;&lt;/i&gt;" style="ellipse;whiteSpace=wrap;html=1;aspect=fixed;strokeWidth=3;fontSize=20;" parent="1" vertex="1">
          <mxGeometry x="304" y="460" width="40" height="40" as="geometry" />
        </mxCell>
        <mxCell id="SCEBDnn7HksAOEmNl1ou-20" value="&lt;i style=&quot;font-size: 20px&quot;&gt;&lt;font face=&quot;Times New Roman&quot; style=&quot;font-size: 20px&quot;&gt;s&lt;sub&gt;3&lt;/sub&gt;&lt;sup&gt;1&lt;/sup&gt;&lt;/font&gt;&lt;/i&gt;" style="ellipse;whiteSpace=wrap;html=1;aspect=fixed;strokeWidth=3;fontSize=20;fillColor=#dae8fc;strokeColor=#6c8ebf;" parent="1" vertex="1">
          <mxGeometry x="464" y="460" width="40" height="40" as="geometry" />
        </mxCell>
        <mxCell id="SCEBDnn7HksAOEmNl1ou-21" value="" style="endArrow=classic;html=1;exitX=0;exitY=1;exitDx=0;exitDy=0;entryX=1;entryY=0;entryDx=0;entryDy=0;strokeWidth=3;fontSize=20;" parent="1" source="SCEBDnn7HksAOEmNl1ou-14" target="SCEBDnn7HksAOEmNl1ou-19" edge="1">
          <mxGeometry width="50" height="50" relative="1" as="geometry">
            <mxPoint x="674" y="400" as="sourcePoint" />
            <mxPoint x="724" y="350" as="targetPoint" />
          </mxGeometry>
        </mxCell>
        <mxCell id="SCEBDnn7HksAOEmNl1ou-22" value="" style="endArrow=classic;html=1;exitX=1;exitY=1;exitDx=0;exitDy=0;entryX=0;entryY=0;entryDx=0;entryDy=0;strokeWidth=3;fontSize=20;" parent="1" source="SCEBDnn7HksAOEmNl1ou-14" target="SCEBDnn7HksAOEmNl1ou-20" edge="1">
          <mxGeometry width="50" height="50" relative="1" as="geometry">
            <mxPoint x="674" y="400" as="sourcePoint" />
            <mxPoint x="724" y="350" as="targetPoint" />
          </mxGeometry>
        </mxCell>
        <mxCell id="SCEBDnn7HksAOEmNl1ou-23" value="&lt;font face=&quot;Times New Roman&quot; style=&quot;font-size: 20px&quot;&gt;U&lt;sub&gt;1&lt;/sub&gt;&lt;/font&gt;" style="text;html=1;align=center;verticalAlign=middle;resizable=0;points=[];autosize=1;strokeColor=none;strokeWidth=3;fontSize=20;" parent="1" vertex="1">
          <mxGeometry x="334" y="410" width="40" height="40" as="geometry" />
        </mxCell>
        <mxCell id="SCEBDnn7HksAOEmNl1ou-24" value="&lt;font face=&quot;Times New Roman&quot;&gt;U&lt;sub&gt;2&lt;/sub&gt;&lt;/font&gt;" style="text;html=1;align=center;verticalAlign=middle;resizable=0;points=[];autosize=1;strokeColor=none;strokeWidth=3;fontSize=20;" parent="1" vertex="1">
          <mxGeometry x="443" y="410" width="40" height="40" as="geometry" />
        </mxCell>
        <mxCell id="sO_SUqJRLcBV3mt7vMYh-2" value="&lt;i style=&quot;font-size: 20px&quot;&gt;&lt;font face=&quot;Times New Roman&quot; style=&quot;font-size: 20px&quot;&gt;s&lt;sub&gt;4&lt;/sub&gt;&lt;sup&gt;0&lt;/sup&gt;&lt;/font&gt;&lt;/i&gt;" style="ellipse;whiteSpace=wrap;html=1;aspect=fixed;strokeWidth=3;fontSize=20;fillColor=#dae8fc;strokeColor=#6c8ebf;" vertex="1" parent="1">
          <mxGeometry x="394" y="550" width="35" height="35" as="geometry" />
        </mxCell>
        <mxCell id="sO_SUqJRLcBV3mt7vMYh-7" value="" style="endArrow=classic;html=1;entryX=1;entryY=0;entryDx=0;entryDy=0;strokeWidth=3;fontSize=20;exitX=0;exitY=1;exitDx=0;exitDy=0;" edge="1" parent="1" source="SCEBDnn7HksAOEmNl1ou-20">
          <mxGeometry width="50" height="50" relative="1" as="geometry">
            <mxPoint x="474" y="490" as="sourcePoint" />
            <mxPoint x="422.28213562373105" y="551.717864376269" as="targetPoint" />
          </mxGeometry>
        </mxCell>
        <mxCell id="sO_SUqJRLcBV3mt7vMYh-10" value="&lt;font face=&quot;Times New Roman&quot; style=&quot;font-size: 20px&quot;&gt;U&lt;sub&gt;1&lt;/sub&gt;&lt;/font&gt;" style="text;html=1;align=center;verticalAlign=middle;resizable=0;points=[];autosize=1;strokeColor=none;strokeWidth=3;fontSize=20;" vertex="1" parent="1">
          <mxGeometry x="414" y="485" width="40" height="40" as="geometry" />
        </mxCell>
      </root>
    </mxGraphModel>
  </diagram>
</mxfile>
